<svg width="64" height="64" viewBox="0 0 64 64" fill="none" xmlns="http://www.w3.org/2000/svg">
<path d="M31.36 3.5L56.29 16.79V37.64L47.93 50.57L31.36 60.5L16.54 51.14L8.44996 39.2L7.95996 16.59L31.36 3.5Z" fill="#78B9EB"/>
<path d="M57 15.68L32.75 2.68004C32.532 2.56188 32.2879 2.5 32.04 2.5C31.792 2.5 31.548 2.56188 31.33 2.68004L6.99995 15.68C6.76952 15.8142 6.57873 16.0071 6.447 16.2389C6.31526 16.4708 6.24728 16.7334 6.24995 17V32C6.25095 36.5131 7.43757 40.9466 9.69101 44.8568C11.9444 48.767 15.1856 52.0165 19.09 54.28L31.25 61.28C31.4783 61.4107 31.7368 61.4795 32 61.4795C32.2631 61.4795 32.5216 61.4107 32.75 61.28L44.91 54.28C48.8143 52.0165 52.0555 48.767 54.3089 44.8568C56.5623 40.9466 57.749 36.5131 57.75 32V17C57.7526 16.7334 57.6846 16.4708 57.5529 16.2389C57.4212 16.0071 57.2304 15.8142 57 15.68V15.68ZM54.75 32C54.7496 35.9863 53.7019 39.9026 51.7117 43.3565C49.7215 46.8104 46.8586 49.6808 43.41 51.68L32 58.27L20.59 51.68C17.1413 49.6808 14.2784 46.8104 12.2882 43.3565C10.298 39.9026 9.25027 35.9863 9.24995 32V17.9L32 5.70004L54.75 17.9V32Z" fill="#006DF0"/>
</svg>
